# Blender v3.1.2 OBJ File: ''
# www.blender.org
mtllib vector_base_collision.mtl
o vector_base_collision
v 0.219223 0.069430 0.174497
v 0.227075 0.072471 0.174497
v 0.219223 0.058737 0.174497
v 0.250623 0.076200 0.174497
v 0.274170 0.072471 0.174497
v 0.295412 0.061647 0.174497
v 0.299165 0.058737 0.174497
v 0.205833 -0.061647 0.237709
v 0.227075 -0.072471 0.174497
v 0.227075 -0.072471 0.237709
v 0.250623 -0.076200 0.174497
v 0.250623 -0.076200 0.237709
v 0.274170 -0.072471 0.174497
v 0.274170 -0.072471 0.237709
v 0.295412 -0.061647 0.174497
v 0.295412 -0.061647 0.237709
v 0.312270 -0.044789 0.174497
v 0.312270 -0.044789 0.237709
v 0.323093 -0.023547 0.174497
v 0.323093 -0.023547 0.237709
v 0.326822 -0.000000 0.174497
v 0.326822 -0.000000 0.237709
v 0.323093 0.023547 0.174497
v 0.323093 0.023547 0.237709
v 0.312270 0.044789 0.174497
v 0.312270 0.044789 0.237709
v 0.295412 0.061647 0.237709
v 0.301423 0.056796 0.174497
v 0.274170 0.072471 0.237709
v 0.250623 0.076200 0.237709
v 0.227075 0.072471 0.237709
v 0.205833 0.061647 0.237709
v 0.205833 0.061647 0.174497
v 0.188975 0.044789 0.174497
v 0.188975 0.044789 0.237709
v 0.178152 0.023547 0.174497
v 0.178152 0.023547 0.237709
v 0.174423 -0.000000 0.174497
v 0.174423 -0.000000 0.237709
v 0.178152 -0.023547 0.174497
v 0.178152 -0.023547 0.237709
v 0.188975 -0.044789 0.174497
v 0.188975 -0.044789 0.237709
v 0.193826 -0.050800 0.174497
v 0.205833 -0.061647 0.174497
v 0.301423 -0.050800 0.174497
v 0.301423 0.058737 0.174497
v -0.193873 -0.050800 0.174497
v -0.189022 -0.044789 0.174497
v -0.178199 -0.023547 0.174497
v -0.219223 0.204528 0.174497
v -0.219223 0.069408 0.174497
v -0.205880 0.061647 0.174497
v -0.174469 -0.000000 0.174497
v -0.178199 0.023547 0.174497
v -0.189022 0.044789 0.174497
v 0.219223 0.204528 0.174497
v 0.188975 0.044789 -0.174497
v 0.178152 0.023547 -0.174497
v -0.219223 0.204528 -0.174497
v 0.219223 0.204528 -0.174497
v 0.219223 0.069430 -0.174497
v 0.205833 0.061647 -0.174497
v 0.178152 -0.023547 -0.174497
v -0.178199 -0.023547 -0.174497
v 0.174423 -0.000000 -0.174497
v -0.174469 -0.000000 -0.174497
v -0.193873 -0.050800 -0.174497
v -0.189022 -0.044789 -0.174497
v 0.193826 -0.050800 -0.174497
v 0.188975 -0.044789 -0.174497
v -0.178199 0.023547 -0.174497
v -0.189022 0.044789 -0.174497
v -0.205880 0.061647 -0.174497
v -0.219223 0.069408 -0.174497
v -0.219223 0.058737 0.174497
v -0.219223 0.058737 -0.174497
v 0.219223 0.058737 -0.174497
v -0.299212 0.058737 0.174497
v -0.299212 0.058737 -0.174497
v -0.301469 0.058737 0.174497
v -0.301469 0.058737 -0.174497
v 0.227075 0.072471 -0.174497
v 0.299165 0.058737 -0.174497
v 0.295412 0.061647 -0.174497
v 0.274170 0.072471 -0.174497
v 0.250623 0.076200 -0.174497
v 0.188975 -0.044789 -0.237709
v 0.178152 -0.023547 -0.237709
v 0.174423 -0.000000 -0.237709
v 0.178152 0.023547 -0.237709
v 0.188975 0.044789 -0.237709
v 0.205833 0.061647 -0.237709
v 0.227075 0.072471 -0.237709
v 0.250623 0.076200 -0.237709
v 0.274170 0.072471 -0.237709
v 0.295412 0.061647 -0.237709
v 0.301423 0.056796 -0.174497
v 0.312270 0.044789 -0.237709
v 0.312270 0.044789 -0.174497
v 0.323093 0.023547 -0.174497
v 0.323093 0.023547 -0.237709
v 0.326822 -0.000000 -0.174497
v 0.326822 -0.000000 -0.237709
v 0.323093 -0.023547 -0.174497
v 0.323093 -0.023547 -0.237709
v 0.312270 -0.044789 -0.174497
v 0.312270 -0.044789 -0.237709
v 0.295412 -0.061647 -0.174497
v 0.295412 -0.061647 -0.237709
v 0.274170 -0.072471 -0.174497
v 0.274170 -0.072471 -0.237709
v 0.250623 -0.076200 -0.174497
v 0.250623 -0.076200 -0.237709
v 0.227075 -0.072471 -0.174497
v 0.227075 -0.072471 -0.237709
v 0.205833 -0.061647 -0.174497
v 0.205833 -0.061647 -0.237709
v 0.301423 -0.050800 -0.174497
v 0.301423 0.058737 -0.174497
v -0.312317 0.044789 0.174497
v -0.301469 0.056796 0.174497
v -0.301469 -0.050800 0.174497
v -0.323140 0.023547 0.174497
v -0.295459 -0.061647 0.174497
v -0.312317 -0.044789 0.174497
v -0.205880 -0.061647 0.174497
v -0.227122 -0.072471 0.174497
v -0.250669 -0.076200 0.174497
v -0.274217 -0.072471 0.174497
v -0.323140 -0.023547 0.174497
v -0.326869 -0.000000 0.174497
v -0.189022 -0.044789 0.237709
v -0.178199 -0.023547 0.237709
v -0.174469 -0.000000 0.237709
v -0.178199 0.023547 0.237709
v -0.189022 0.044789 0.237709
v -0.205880 0.061647 0.237709
v -0.227122 0.072471 0.237709
v -0.227122 0.072471 0.174497
v -0.250669 0.076200 0.174497
v -0.250669 0.076200 0.237709
v -0.274217 0.072471 0.174497
v -0.274217 0.072471 0.237709
v -0.295459 0.061647 0.174497
v -0.295459 0.061647 0.237709
v -0.312317 0.044789 0.237709
v -0.323140 0.023547 0.237709
v -0.326869 -0.000000 0.237709
v -0.323140 -0.023547 0.237709
v -0.312317 -0.044789 0.237709
v -0.295459 -0.061647 0.237709
v -0.274217 -0.072471 0.237709
v -0.250669 -0.076200 0.237709
v -0.227122 -0.072471 0.237709
v -0.205880 -0.061647 0.237709
v -0.301469 0.056796 -0.174497
v -0.301469 -0.050800 -0.174497
v -0.227122 0.072471 -0.174497
v -0.250669 0.076200 -0.174497
v -0.274217 0.072471 -0.174497
v -0.295459 0.061647 -0.174497
v -0.312317 0.044789 -0.174497
v -0.295459 0.061647 -0.237709
v -0.274217 0.072471 -0.237709
v -0.250669 0.076200 -0.237709
v -0.227122 0.072471 -0.237709
v -0.205880 0.061647 -0.237709
v -0.189022 0.044789 -0.237709
v -0.178199 0.023547 -0.237709
v -0.174469 -0.000000 -0.237709
v -0.178199 -0.023547 -0.237709
v -0.189022 -0.044789 -0.237709
v -0.205880 -0.061647 -0.237709
v -0.205880 -0.061647 -0.174497
v -0.227122 -0.072471 -0.174497
v -0.227122 -0.072471 -0.237709
v -0.250669 -0.076200 -0.174497
v -0.250669 -0.076200 -0.237709
v -0.274217 -0.072471 -0.174497
v -0.274217 -0.072471 -0.237709
v -0.295459 -0.061647 -0.174497
v -0.295459 -0.061647 -0.237709
v -0.312317 -0.044789 -0.174497
v -0.312317 -0.044789 -0.237709
v -0.323140 -0.023547 -0.174497
v -0.323140 -0.023547 -0.237709
v -0.326869 -0.000000 -0.174497
v -0.326869 -0.000000 -0.237709
v -0.323140 0.023547 -0.174497
v -0.323140 0.023547 -0.237709
v -0.312317 0.044789 -0.237709
vn 0.0000 0.0000 -1.0000
vn -0.4540 -0.8910 0.0000
vn -0.1564 -0.9877 0.0000
vn 0.1564 -0.9877 0.0000
vn 0.4540 -0.8910 0.0000
vn 0.7071 -0.7071 0.0000
vn 0.8910 -0.4540 0.0000
vn 0.9877 -0.1564 0.0000
vn 0.9877 0.1564 0.0000
vn 0.8910 0.4540 0.0000
vn 0.7071 0.7071 0.0000
vn 0.7419 0.6702 0.0191
vn 0.6520 0.7582 0.0038
vn 0.6127 0.7903 0.0000
vn 0.4540 0.8910 0.0000
vn 0.1564 0.9877 0.0000
vn -0.1564 0.9877 0.0000
vn -0.3611 0.9325 0.0000
vn -0.4539 0.8909 0.0135
vn -0.5025 0.8646 0.0000
vn -0.7071 0.7071 0.0000
vn -0.8910 0.4540 0.0000
vn -0.9877 0.1564 0.0000
vn -0.9877 -0.1564 0.0000
vn -0.8910 -0.4540 0.0000
vn -0.7782 -0.6280 0.0000
vn -0.7070 -0.7070 0.0130
vn -0.6704 -0.7420 0.0000
vn 0.0000 0.0000 1.0000
vn -1.0000 0.0000 0.0000
vn 1.0000 0.0000 0.0000
vn 0.0000 1.0000 0.0000
vn -0.4539 0.8909 -0.0135
vn 0.6520 0.7582 -0.0038
vn 0.7070 0.7070 -0.0130
vn 0.7420 0.6704 0.0000
vn -0.7070 -0.7070 -0.0130
vn 0.5028 0.8644 0.0000
vn 0.4539 0.8909 0.0136
vn 0.3614 0.9324 0.0000
vn -0.4540 0.8910 0.0000
vn -0.6127 0.7903 0.0000
vn -0.6520 0.7582 0.0038
vn -0.7070 0.7070 0.0130
vn -0.7420 0.6704 0.0000
vn -0.7071 -0.7071 0.0000
vn 0.6704 -0.7420 0.0000
vn 0.7070 -0.7070 0.0130
vn 0.7782 -0.6280 0.0000
vn 0.0000 -1.0000 0.0000
vn -0.7419 0.6702 -0.0191
vn -0.6520 0.7582 -0.0038
vn 0.4539 0.8909 -0.0136
vn 0.7070 -0.7070 -0.0130
usemtl None
s off
f 1//1 2//1 3//1
f 3//1 2//1 4//1
f 4//1 5//1 3//1
f 3//1 5//1 6//1
f 3//1 6//1 7//1
f 8//2 9//2 10//2
f 10//3 9//3 11//3
f 10//3 11//3 12//3
f 12//4 11//4 13//4
f 12//4 13//4 14//4
f 14//5 13//5 15//5
f 14//5 15//5 16//5
f 16//6 15//6 17//6
f 16//6 17//6 18//6
f 18//7 17//7 19//7
f 18//7 19//7 20//7
f 20//8 19//8 21//8
f 20//8 21//8 22//8
f 22//9 21//9 23//9
f 22//9 23//9 24//9
f 24//10 23//10 25//10
f 24//10 25//10 26//10
f 26//11 25//11 27//11
f 27//12 25//12 28//12
f 27//13 28//13 7//13
f 7//14 6//14 27//14
f 27//15 6//15 5//15
f 27//15 5//15 29//15
f 29//16 5//16 4//16
f 29//16 4//16 30//16
f 30//17 4//17 2//17
f 30//17 2//17 31//17
f 31//18 2//18 1//18
f 31//19 1//19 32//19
f 1//20 33//20 32//20
f 32//21 33//21 34//21
f 32//21 34//21 35//21
f 35//22 34//22 36//22
f 35//22 36//22 37//22
f 37//23 36//23 38//23
f 37//23 38//23 39//23
f 39//24 38//24 40//24
f 39//24 40//24 41//24
f 41//25 40//25 42//25
f 41//25 42//25 43//25
f 43//26 42//26 44//26
f 43//27 44//27 8//27
f 8//28 44//28 45//28
f 8//2 45//2 9//2
f 22//29 37//29 20//29
f 20//29 37//29 39//29
f 20//29 39//29 41//29
f 41//29 43//29 20//29
f 20//29 43//29 8//29
f 20//29 8//29 10//29
f 32//29 35//29 26//29
f 26//29 35//29 37//29
f 26//29 37//29 24//29
f 24//29 37//29 22//29
f 29//29 30//29 31//29
f 10//29 12//29 20//29
f 20//29 12//29 14//29
f 20//29 14//29 18//29
f 18//29 14//29 16//29
f 32//29 26//29 31//29
f 31//29 26//29 27//29
f 31//29 27//29 29//29
f 45//1 44//1 46//1
f 46//1 28//1 25//1
f 46//1 15//1 45//1
f 45//1 15//1 13//1
f 45//1 13//1 9//1
f 9//1 13//1 11//1
f 23//1 21//1 25//1
f 25//1 21//1 19//1
f 25//1 19//1 46//1
f 46//1 19//1 17//1
f 46//1 17//1 15//1
f 28//29 47//29 7//29
f 48//29 44//29 49//29
f 49//29 44//29 50//29
f 51//29 52//29 53//29
f 51//29 53//29 36//29
f 44//29 42//29 50//29
f 50//29 42//29 40//29
f 50//29 40//29 54//29
f 54//29 40//29 38//29
f 54//29 38//29 55//29
f 55//29 38//29 36//29
f 55//29 36//29 56//29
f 56//29 36//29 53//29
f 1//29 57//29 33//29
f 33//29 57//29 51//29
f 33//29 51//29 34//29
f 34//29 51//29 36//29
f 58//1 59//1 60//1
f 61//1 62//1 60//1
f 60//1 62//1 63//1
f 60//1 63//1 58//1
f 64//1 65//1 66//1
f 66//1 65//1 67//1
f 66//1 67//1 59//1
f 68//1 69//1 70//1
f 70//1 69//1 65//1
f 70//1 65//1 71//1
f 71//1 65//1 64//1
f 67//1 72//1 59//1
f 59//1 72//1 73//1
f 59//1 73//1 60//1
f 60//1 73//1 74//1
f 60//1 74//1 75//1
f 51//30 60//30 52//30
f 52//30 60//30 75//30
f 52//30 75//30 76//30
f 76//30 75//30 77//30
f 3//31 78//31 1//31
f 1//31 78//31 62//31
f 1//31 62//31 57//31
f 57//31 62//31 61//31
f 61//32 60//32 57//32
f 57//32 60//32 51//32
f 76//32 77//32 79//32
f 79//32 77//32 80//32
f 79//32 80//32 81//32
f 81//32 80//32 82//32
f 83//29 62//29 78//29
f 78//29 84//29 85//29
f 85//29 86//29 78//29
f 78//29 86//29 87//29
f 78//29 87//29 83//29
f 88//25 64//25 89//25
f 89//24 64//24 66//24
f 89//24 66//24 90//24
f 90//23 66//23 59//23
f 90//23 59//23 91//23
f 91//22 59//22 58//22
f 91//22 58//22 92//22
f 92//21 58//21 63//21
f 92//21 63//21 93//21
f 93//20 63//20 62//20
f 93//33 62//33 94//33
f 62//18 83//18 94//18
f 94//17 83//17 87//17
f 94//17 87//17 95//17
f 95//16 87//16 86//16
f 95//16 86//16 96//16
f 96//15 86//15 85//15
f 96//15 85//15 97//15
f 85//14 84//14 97//14
f 97//34 84//34 98//34
f 97//35 98//35 99//35
f 98//36 100//36 99//36
f 99//10 100//10 101//10
f 99//10 101//10 102//10
f 102//9 101//9 103//9
f 102//9 103//9 104//9
f 104//8 103//8 105//8
f 104//8 105//8 106//8
f 106//7 105//7 107//7
f 106//7 107//7 108//7
f 108//6 107//6 109//6
f 108//6 109//6 110//6
f 110//5 109//5 111//5
f 110//5 111//5 112//5
f 112//4 111//4 113//4
f 112//4 113//4 114//4
f 114//3 113//3 115//3
f 114//3 115//3 116//3
f 116//2 115//2 117//2
f 116//2 117//2 118//2
f 118//28 117//28 70//28
f 118//37 70//37 88//37
f 88//26 70//26 71//26
f 88//25 71//25 64//25
f 102//1 104//1 90//1
f 104//1 106//1 90//1
f 90//1 106//1 108//1
f 90//1 108//1 110//1
f 110//1 112//1 90//1
f 90//1 112//1 114//1
f 90//1 114//1 116//1
f 90//1 91//1 102//1
f 102//1 91//1 92//1
f 102//1 92//1 93//1
f 95//1 96//1 97//1
f 93//1 94//1 102//1
f 102//1 94//1 95//1
f 102//1 95//1 99//1
f 99//1 95//1 97//1
f 116//1 118//1 90//1
f 90//1 118//1 88//1
f 90//1 88//1 89//1
f 100//29 98//29 119//29
f 119//29 70//29 117//29
f 117//29 115//29 119//29
f 119//29 115//29 113//29
f 119//29 113//29 111//29
f 111//29 109//29 119//29
f 119//29 109//29 107//29
f 119//29 107//29 100//29
f 100//29 107//29 105//29
f 100//29 105//29 101//29
f 101//29 105//29 103//29
f 84//1 120//1 98//1
f 121//1 122//1 123//1
f 121//1 123//1 124//1
f 125//1 126//1 123//1
f 123//1 48//1 127//1
f 128//1 129//1 130//1
f 126//1 131//1 123//1
f 123//1 131//1 132//1
f 123//1 132//1 124//1
f 125//1 123//1 130//1
f 130//1 123//1 127//1
f 130//1 127//1 128//1
f 133//7 50//7 134//7
f 134//8 50//8 54//8
f 134//8 54//8 135//8
f 135//9 54//9 55//9
f 135//9 55//9 136//9
f 136//10 55//10 56//10
f 136//10 56//10 137//10
f 137//11 56//11 53//11
f 137//11 53//11 138//11
f 138//38 53//38 52//38
f 138//39 52//39 139//39
f 52//40 140//40 139//40
f 139//16 140//16 141//16
f 139//16 141//16 142//16
f 142//17 141//17 143//17
f 142//17 143//17 144//17
f 144//41 143//41 145//41
f 144//41 145//41 146//41
f 145//42 79//42 146//42
f 146//43 79//43 122//43
f 146//44 122//44 147//44
f 122//45 121//45 147//45
f 147//22 121//22 124//22
f 147//22 124//22 148//22
f 148//23 124//23 132//23
f 148//23 132//23 149//23
f 149//24 132//24 131//24
f 149//24 131//24 150//24
f 150//25 131//25 126//25
f 150//25 126//25 151//25
f 151//46 126//46 125//46
f 151//46 125//46 152//46
f 152//2 125//2 130//2
f 152//2 130//2 153//2
f 153//3 130//3 129//3
f 153//3 129//3 154//3
f 154//4 129//4 128//4
f 154//4 128//4 155//4
f 155//5 128//5 127//5
f 155//5 127//5 156//5
f 156//47 127//47 48//47
f 156//48 48//48 133//48
f 133//49 48//49 49//49
f 133//7 49//7 50//7
f 156//29 133//29 149//29
f 147//29 148//29 138//29
f 138//29 148//29 137//29
f 142//29 144//29 146//29
f 153//29 154//29 149//29
f 149//29 154//29 155//29
f 149//29 155//29 156//29
f 133//29 134//29 149//29
f 149//29 134//29 135//29
f 149//29 135//29 148//29
f 148//29 135//29 136//29
f 148//29 136//29 137//29
f 153//29 149//29 152//29
f 152//29 149//29 150//29
f 152//29 150//29 151//29
f 147//29 138//29 146//29
f 146//29 138//29 139//29
f 146//29 139//29 142//29
f 140//1 52//1 76//1
f 76//1 79//1 145//1
f 145//1 143//1 76//1
f 76//1 143//1 141//1
f 76//1 141//1 140//1
f 79//29 81//29 122//29
f 80//1 157//1 82//1
f 47//32 120//32 7//32
f 7//32 120//32 84//32
f 7//32 84//32 3//32
f 3//32 84//32 78//32
f 123//50 158//50 48//50
f 48//50 158//50 68//50
f 48//50 68//50 44//50
f 44//50 68//50 70//50
f 44//50 70//50 46//50
f 46//50 70//50 119//50
f 81//30 82//30 122//30
f 122//30 82//30 157//30
f 122//30 157//30 123//30
f 123//30 157//30 158//30
f 46//31 119//31 28//31
f 28//31 119//31 98//31
f 28//31 98//31 47//31
f 47//31 98//31 120//31
f 75//29 159//29 77//29
f 77//29 159//29 160//29
f 160//29 161//29 77//29
f 77//29 161//29 162//29
f 77//29 162//29 80//29
f 163//51 157//51 164//51
f 164//52 157//52 80//52
f 80//42 162//42 164//42
f 164//41 162//41 161//41
f 164//41 161//41 165//41
f 165//17 161//17 160//17
f 165//17 160//17 166//17
f 166//16 160//16 159//16
f 166//16 159//16 167//16
f 167//40 159//40 75//40
f 167//53 75//53 168//53
f 75//38 74//38 168//38
f 168//11 74//11 73//11
f 168//11 73//11 169//11
f 169//10 73//10 72//10
f 169//10 72//10 170//10
f 170//9 72//9 67//9
f 170//9 67//9 171//9
f 171//8 67//8 65//8
f 171//8 65//8 172//8
f 172//7 65//7 69//7
f 172//7 69//7 173//7
f 173//49 69//49 68//49
f 173//54 68//54 174//54
f 68//47 175//47 174//47
f 174//5 175//5 176//5
f 174//5 176//5 177//5
f 177//4 176//4 178//4
f 177//4 178//4 179//4
f 179//3 178//3 180//3
f 179//3 180//3 181//3
f 181//2 180//2 182//2
f 181//2 182//2 183//2
f 183//46 182//46 184//46
f 183//46 184//46 185//46
f 185//25 184//25 186//25
f 185//25 186//25 187//25
f 187//24 186//24 188//24
f 187//24 188//24 189//24
f 189//23 188//23 190//23
f 189//23 190//23 191//23
f 191//22 190//22 163//22
f 191//22 163//22 192//22
f 192//21 163//21 164//21
f 183//1 168//1 169//1
f 191//1 192//1 164//1
f 191//1 164//1 189//1
f 169//1 170//1 183//1
f 183//1 170//1 171//1
f 183//1 171//1 172//1
f 174//1 177//1 179//1
f 189//1 164//1 187//1
f 187//1 164//1 165//1
f 187//1 165//1 166//1
f 172//1 173//1 183//1
f 183//1 173//1 174//1
f 183//1 174//1 181//1
f 181//1 174//1 179//1
f 183//1 185//1 168//1
f 168//1 185//1 187//1
f 168//1 187//1 167//1
f 167//1 187//1 166//1
f 158//29 157//29 163//29
f 184//29 182//29 158//29
f 158//29 182//29 180//29
f 158//29 180//29 178//29
f 178//29 176//29 158//29
f 158//29 176//29 175//29
f 158//29 175//29 68//29
f 190//29 188//29 186//29
f 184//29 158//29 186//29
f 186//29 158//29 163//29
f 186//29 163//29 190//29
